<svg xmlns="http://www.w3.org/2000/svg" viewBox="0 0 696.03 482.28">
  <g>
    <path d="M444,197c31.65,29.67,62.51,54.46,106.82,68.7,0,0-20.93-62.17-25.28-108.66-2.77-30.06,3.91-75.95,3.91-75.95s49.44,77.06,84.27,110.37c18.19,17.41,41.66,33.09,55.38,39.43,16.72,7.72,26.76,7.91,26.76,7.91s.43-20-.15-26c-.11-1.06-5-26.49-5.21-27.53C670.78,93.76,573.38,17.65,462.16,17.65c-43.06,0-76.22,5-107.08,24C355.18,41.85,391,147.3,444,197Z"/>
    <path d="M293,207c28.31-48.77,36.4-107.33,31.67-154l4.73-2.76C250,94.91,211.76,189.38,220.16,268.77h0C254.13,258.31,270.62,245.62,293,207Z"/>
    <path d="M692.86,272c-.37,0-21-2.93-53.28-21.1-45.89-25.84-77.24-73.73-77.24-73.73,2.07,10.62,5.56,38.2,12.36,60,5.11,16.38,22.42,77.67,22.42,77.67s-77.8-9.1-154.68-68c-39.73-30.47-64.07-62.92-85.85-105.17-9.58,62.84-32.68,89.84-38.37,98.05-15.87,22.88-44,53.14-92.88,67.33C263.23,430.79,355,479.81,462.09,482.22c114.1,2.58,184.35-79.91,205.29-119.9C671.05,355.31,693.32,306.31,692.86,272Z"/>
    <path d="M85,30C16.11,82.55-22.08,182.56,13.62,267.66L300,25.77C204.64-18.89,121.06,2.48,85,30Z"/>
  </g>
</svg>
